<svg width="22" height="19" viewBox="0 0 22 19" fill="none" xmlns="http://www.w3.org/2000/svg">
<path d="M17 6C16.7167 6 16.479 5.904 16.287 5.712C16.095 5.52 15.9993 5.28267 16 5C16 4.86667 16.0293 4.73733 16.088 4.612C16.1467 4.48667 16.2173 4.38267 16.3 4.3C16.5 4.1 16.9583 3.875 17.675 3.625L18.75 3.25L18.375 4.325C18.275 4.60833 18.1623 4.88333 18.037 5.15C17.9117 5.41667 17.7993 5.6 17.7 5.7C17.6167 5.78333 17.5127 5.85433 17.388 5.913C17.2633 5.97167 17.134 6.00067 17 6ZM2 19C1.45 19 0.979002 18.804 0.587002 18.412C0.195002 18.02 -0.000664969 17.5493 1.69779e-06 17V3C1.69779e-06 2.45 0.196002 1.979 0.588002 1.587C0.980002 1.195 1.45067 0.999334 2 1H8C8.55 1 9.021 1.196 9.413 1.588C9.805 1.98 10.0007 2.45067 10 3V11.175C10.15 11.125 10.3083 11.0833 10.475 11.05C10.6417 11.0167 10.8167 11 11 11C11.8333 11 12.5417 11.2917 13.125 11.875C13.7083 12.4583 14 13.1667 14 14V16C14 16.2833 14.096 16.521 14.288 16.713C14.48 16.905 14.7173 17.0007 15 17C15.2833 17 15.521 16.904 15.713 16.712C15.905 16.52 16.0007 16.2827 16 16V11H15V9.575C14.1 9.19167 13.375 8.59167 12.825 7.775C12.275 6.95833 12 6.03333 12 5C12 3.61667 12.4877 2.43733 13.463 1.462C14.4383 0.486667 15.6173 -0.000665984 17 6.8306e-07C18.3833 6.8306e-07 19.5627 0.487667 20.538 1.463C21.5133 2.43833 22.0007 3.61733 22 5C22 6.03333 21.725 6.95833 21.175 7.775C20.625 8.59167 19.9 9.19167 19 9.575V11H18V16C18 16.8333 17.7083 17.5417 17.125 18.125C16.5417 18.7083 15.8333 19 15 19C14.1667 19 13.4583 18.7083 12.875 18.125C12.2917 17.5417 12 16.8333 12 16V14C12 13.7167 11.904 13.479 11.712 13.287C11.52 13.095 11.2827 12.9993 11 13C10.7167 13 10.479 13.096 10.287 13.288C10.095 13.48 9.99934 13.7173 10 14V17C10 17.55 9.804 18.021 9.412 18.413C9.02 18.805 8.54934 19.0007 8 19H2ZM17 8C17.8333 8 18.5417 7.70833 19.125 7.125C19.7083 6.54167 20 5.83333 20 5C20 4.16667 19.7083 3.45833 19.125 2.875C18.5417 2.29167 17.8333 2 17 2C16.1667 2 15.4583 2.29167 14.875 2.875C14.2917 3.45833 14 4.16667 14 5C14 5.83333 14.2917 6.54167 14.875 7.125C15.4583 7.70833 16.1667 8 17 8ZM2 17H8V15L6 17V14.175L8 12.175V10L6 12V9.175L8 7.175V5L6 7V4.175L7.175 3H2.825L4 4.175V7L2 5V7.175L4 9.175V12L2 10V12.175L4 14.175V17L2 15V17Z" fill="#01B763"/>
</svg>
