<svg width="382" height="221" viewBox="0 0 382 221" fill="none" xmlns="http://www.w3.org/2000/svg">
<g opacity="0.5">
<path opacity="0.1" d="M238.683 -9.36133L367.664 67.009V196.137L238.683 119.075V-9.36133Z" fill="white"/>
<path opacity="0.2" d="M496.193 -9.2832L367.215 67.0071V196L496.193 119.019V-9.2832Z" fill="white"/>
<path opacity="0.3" d="M238.683 -8.938L367.664 -86L496.644 -8.938V-8.36162L367.664 68.7004L238.683 -8.36162V-8.938Z" fill="white"/>
<path opacity="0.1" d="M-115 63.8926L13.9809 140.263V269.391L-115 192.329V63.8926Z" fill="white"/>
<path opacity="0.2" d="M142.51 63.9707L13.5326 140.261V269.254L142.51 192.273V63.9707Z" fill="white"/>
<path opacity="0.3" d="M-115 64.3159L13.9809 -12.7461L142.962 64.3159V64.8923L13.9809 141.954L-115 64.8923V64.3159Z" fill="white"/>
<path opacity="0.1" d="M205.679 55.9551L259.458 87.7981V141.639L205.679 109.507V55.9551Z" fill="white"/>
<path opacity="0.2" d="M313.049 55.9883L259.271 87.7979V141.582L313.049 109.484V55.9883Z" fill="white"/>
<path opacity="0.3" d="M205.679 56.1314L259.458 24L313.237 56.1314V56.3717L259.458 88.5031L205.679 56.3717V56.1314Z" fill="white"/>
<path opacity="0.3" d="M229.756 228.493L283.535 196.361L337.315 228.493V228.733L283.535 260.864L229.756 228.733V228.493Z" fill="white"/>
</g>
</svg>
