<svg width="47" height="46" viewBox="0 0 47 46" fill="none" xmlns="http://www.w3.org/2000/svg">
<path fill-rule="evenodd" clip-rule="evenodd" d="M3.7658 30.6767C-2.19988 16.028 8.57665 0 24.3939 0H25.2723C37.0887 0 46.6667 9.57792 46.6667 21.3943C46.6667 27.7318 44.1491 33.8097 39.6678 38.291C35.1865 42.7723 29.1086 45.2899 22.7711 45.2899H1.37132C1.08769 45.2905 0.81088 45.203 0.579173 45.0394C0.347466 44.8758 0.172316 44.6443 0.0779515 44.3768C-0.0164133 44.1094 -0.0253289 43.8192 0.0524384 43.5464C0.130206 43.2737 0.290812 43.0318 0.512041 42.8543L5.90851 38.5224C6.13857 38.3378 6.30283 38.0838 6.3768 37.7983C6.45077 37.5128 6.43049 37.211 6.319 36.9379L3.7658 30.6767ZM26.4162 14.9142C26.4162 14.3699 26.2 13.8478 25.8151 13.4629C25.4302 13.078 24.9081 12.8618 24.3638 12.8618C23.8195 12.8618 23.2974 13.078 22.9125 13.4629C22.5276 13.8478 22.3114 14.3699 22.3114 14.9142V20.3873H16.8383C16.294 20.3873 15.7719 20.6035 15.387 20.9884C15.0021 21.3733 14.7859 21.8954 14.7859 22.4397C14.7859 22.984 15.0021 23.5061 15.387 23.891C15.7719 24.2759 16.294 24.4921 16.8383 24.4921H22.3114V29.9652C22.3114 30.5095 22.5276 31.0316 22.9125 31.4165C23.2974 31.8014 23.8195 32.0176 24.3638 32.0176C24.9081 32.0176 25.4302 31.8014 25.8151 31.4165C26.2 31.0316 26.4162 30.5095 26.4162 29.9652V24.4921H31.8893C32.4336 24.4921 32.9557 24.2759 33.3406 23.891C33.7255 23.5061 33.9417 22.984 33.9417 22.4397C33.9417 21.8954 33.7255 21.3733 33.3406 20.9884C32.9557 20.6035 32.4336 20.3873 31.8893 20.3873H26.4162V14.9142Z" fill="#12D18E"/>
</svg>
