<svg width="24" height="24" viewBox="0 0 24 24" fill="none" xmlns="http://www.w3.org/2000/svg">
<path fill-rule="evenodd" clip-rule="evenodd" d="M11.9996 9.64062C10.6696 9.64062 9.58862 10.7226 9.58862 12.0526C9.58862 13.3816 10.6696 14.4626 11.9996 14.4626C13.3296 14.4626 14.4116 13.3816 14.4116 12.0526C14.4116 10.7226 13.3296 9.64062 11.9996 9.64062ZM11.9996 15.9626C9.84262 15.9626 8.08862 14.2086 8.08862 12.0526C8.08862 9.89562 9.84262 8.14062 11.9996 8.14062C14.1566 8.14062 15.9116 9.89562 15.9116 12.0526C15.9116 14.2086 14.1566 15.9626 11.9996 15.9626Z" fill="#212121"/>
<mask id="mask0_3012_3737" style="mask-type:luminance" maskUnits="userSpaceOnUse" x="2" y="4" width="20" height="17">
<path fill-rule="evenodd" clip-rule="evenodd" d="M2.00012 4H22V20.105H2.00012V4Z" fill="white"/>
</mask>
<g mask="url(#mask0_3012_3737)">
<path fill-rule="evenodd" clip-rule="evenodd" d="M3.56987 12.0527C5.42987 16.1617 8.56287 18.6047 11.9999 18.6057C15.4369 18.6047 18.5699 16.1617 20.4299 12.0527C18.5699 7.94475 15.4369 5.50175 11.9999 5.50075C8.56387 5.50175 5.42987 7.94475 3.56987 12.0527ZM12.0019 20.1057H11.9979H11.9969C7.86087 20.1027 4.14687 17.2038 2.06087 12.3488C1.97987 12.1597 1.97987 11.9458 2.06087 11.7568C4.14687 6.90275 7.86187 4.00375 11.9969 4.00075C11.9989 3.99975 11.9989 3.99975 11.9999 4.00075C12.0019 3.99975 12.0019 3.99975 12.0029 4.00075C16.1389 4.00375 19.8529 6.90275 21.9389 11.7568C22.0209 11.9458 22.0209 12.1597 21.9389 12.3488C19.8539 17.2038 16.1389 20.1027 12.0029 20.1057H12.0019Z" fill="#212121"/>
</g>
</svg>
