<svg width="50" height="45" viewBox="0 0 50 45" fill="none" xmlns="http://www.w3.org/2000/svg">
<path fill-rule="evenodd" clip-rule="evenodd" d="M39.4222 13.4545H50C50 4.96148 44.9111 0 36.2889 0H13.7111C5.08889 0 0 4.96148 0 13.3462V31.6538C0 40.0385 5.08889 45 13.7111 45H36.2889C44.9111 45 50 40.0385 50 31.6538V30.8739H39.4222C34.513 30.8739 30.5333 26.9938 30.5333 22.2075C30.5333 17.4212 34.513 13.5412 39.4222 13.5412V13.4545ZM39.4222 17.181H48.1333C49.1643 17.181 50 17.9958 50 19.001V25.3274C49.988 26.3276 49.1593 27.1356 48.1333 27.1473H39.6222C37.1369 27.1799 34.9637 25.5209 34.4 23.1608C34.1177 21.6957 34.514 20.1839 35.4827 19.0305C36.4514 17.8772 37.8934 17.2002 39.4222 17.181ZM39.8 23.8325H40.6222C41.6777 23.8325 42.5333 22.9982 42.5333 21.9692C42.5333 20.9401 41.6777 20.1059 40.6222 20.1059H39.8C39.2952 20.1001 38.809 20.2916 38.45 20.6376C38.0909 20.9836 37.8889 21.4553 37.8889 21.9475C37.8888 22.9801 38.7409 23.8206 39.8 23.8325ZM11.8444 13.4545H25.9556C27.011 13.4545 27.8667 12.6203 27.8667 11.5912C27.8667 10.5622 27.011 9.72797 25.9556 9.72797H11.8444C10.7976 9.7279 9.94551 10.549 9.93333 11.5696C9.93326 12.6022 10.7854 13.4426 11.8444 13.4545Z" fill="url(#paint0_linear_2931_6128)"/>
<defs>
<linearGradient id="paint0_linear_2931_6128" x1="50" y1="45" x2="-8.43262" y2="26.1756" gradientUnits="userSpaceOnUse">
<stop stop-color="#01B763"/>
<stop offset="1" stop-color="#34E895"/>
</linearGradient>
</defs>
</svg>
