<svg width="28" height="28" viewBox="0 0 28 28" fill="none" xmlns="http://www.w3.org/2000/svg">
<path fill-rule="evenodd" clip-rule="evenodd" d="M24.2093 25.5957H15.7474C15.2644 25.5957 14.8724 25.2037 14.8724 24.7207C14.8724 24.2377 15.2644 23.8457 15.7474 23.8457H24.2093C24.6923 23.8457 25.0843 24.2377 25.0843 24.7207C25.0843 25.2037 24.6923 25.5957 24.2093 25.5957" fill="#212121"/>
<mask id="mask0_3028_2969" style="mask-type:luminance" maskUnits="userSpaceOnUse" x="2" y="3" width="21" height="23">
<path fill-rule="evenodd" clip-rule="evenodd" d="M2.33372 3.5H22.3777V25.5961H2.33372V3.5Z" fill="white"/>
</mask>
<g mask="url(#mask0_3028_2969)">
<path fill-rule="evenodd" clip-rule="evenodd" d="M15.2957 5.85275L4.31154 19.5903C4.11204 19.8399 4.03854 20.1619 4.11204 20.4711L4.90654 23.8369L8.45204 23.7926C8.7892 23.7891 9.1007 23.6386 9.3072 23.3819C13.0604 18.6861 20.2155 9.73308 20.4185 9.47058C20.6099 9.16025 20.6845 8.72158 20.5842 8.29925C20.4815 7.86642 20.212 7.49892 19.8235 7.26442C19.7407 7.20725 17.7749 5.68125 17.7142 5.63342C16.9745 5.04075 15.8954 5.14342 15.2957 5.85275V5.85275ZM4.21587 25.5962C3.81104 25.5962 3.4587 25.3186 3.3642 24.9231L2.4087 20.8736C2.21154 20.0347 2.40754 19.1691 2.94537 18.4971L13.9354 4.75142C13.94 4.74675 13.9435 4.74092 13.9482 4.73625C15.1534 3.29542 17.3327 3.08308 18.8027 4.26258C18.861 4.30808 20.8129 5.82475 20.8129 5.82475C21.5222 6.24708 22.0764 7.00192 22.2864 7.89558C22.4952 8.77992 22.3435 9.69225 21.857 10.4634C21.8209 10.5206 21.7894 10.5696 10.6734 24.4762C10.1379 25.1436 9.3352 25.5321 8.47304 25.5426L4.22754 25.5962H4.21587Z" fill="#212121"/>
</g>
<path fill-rule="evenodd" clip-rule="evenodd" d="M18.9273 13.6313C18.7406 13.6313 18.554 13.5718 18.3941 13.4505L12.0335 8.56445C11.6508 8.27045 11.5785 7.72212 11.8725 7.33712C12.1676 6.95445 12.716 6.88329 13.0998 7.17729L19.4616 12.0621C19.8443 12.3561 19.9166 12.9056 19.6215 13.2895C19.45 13.5135 19.1898 13.6313 18.9273 13.6313" fill="#212121"/>
</svg>
