<svg width="52" height="61" viewBox="0 0 52 61" fill="none" xmlns="http://www.w3.org/2000/svg">
<path fill-rule="evenodd" clip-rule="evenodd" d="M29.0982 56.6621C31.2573 52.9469 34.945 50.4668 38.6988 48.3755C46.636 43.9534 52 35.5142 52 25.8303C52 11.5646 40.3594 0 26 0C11.6406 0 0 11.5646 0 25.8303C0 35.5144 5.36422 43.9538 13.3017 48.3758C17.0558 50.4671 20.7437 52.9472 22.9029 56.6627L25.1358 60.5049C25.5213 61.1683 26.4795 61.1683 26.865 60.5049L29.0982 56.6621Z" fill="url(#paint0_linear_2784_12037)"/>
<path d="M16.9375 16.375C16.9375 15.5241 17.2755 14.708 17.8772 14.1064C18.4789 13.5047 19.2949 13.1667 20.1458 13.1667H29.7708C30.6217 13.1667 31.4378 13.5047 32.0394 14.1064C32.6411 14.708 32.9791 15.5241 32.9791 16.375V29.2083C33.83 29.2083 34.6461 29.5464 35.2478 30.148C35.8495 30.7497 36.1875 31.5658 36.1875 32.4167V33.2188C36.1875 33.4315 36.272 33.6355 36.4224 33.7859C36.5728 33.9363 36.7768 34.0208 36.9896 34.0208C37.2023 34.0208 37.4063 33.9363 37.5567 33.7859C37.7071 33.6355 37.7916 33.4315 37.7916 33.2188V27.6042C37.7916 27.1903 37.6248 26.9994 37.219 26.5855L37.2077 26.5727C36.7955 26.154 36.1875 25.5348 36.1875 24.3958V19.5833C36.1873 19.4779 36.2079 19.3735 36.2481 19.2761C36.2883 19.1786 36.3473 19.0901 36.4217 19.0155L37.2238 18.2134C37.2983 18.1387 37.3868 18.0794 37.4842 18.039C37.5817 17.9985 37.6861 17.9777 37.7916 17.9777C37.8972 17.9777 38.0016 17.9985 38.0991 18.039C38.1965 18.0794 38.285 18.1387 38.3595 18.2134L39.1616 19.0155C39.236 19.0901 39.295 19.1786 39.3352 19.2761C39.3754 19.3735 39.396 19.4779 39.3958 19.5833V33.2188C39.3958 33.8569 39.1423 34.469 38.691 34.9202C38.2398 35.3715 37.6277 35.625 36.9896 35.625C36.3514 35.625 35.7393 35.3715 35.2881 34.9202C34.8368 34.469 34.5833 33.8569 34.5833 33.2188V32.4167C34.5833 31.9912 34.4143 31.5832 34.1135 31.2824C33.8126 30.9815 33.4046 30.8125 32.9791 30.8125V37.2292H33.7812C33.994 37.2292 34.198 37.3137 34.3484 37.4641C34.4988 37.6145 34.5833 37.8185 34.5833 38.0312C34.5833 38.244 34.4988 38.448 34.3484 38.5984C34.198 38.7488 33.994 38.8333 33.7812 38.8333H16.1354C15.9227 38.8333 15.7187 38.7488 15.5682 38.5984C15.4178 38.448 15.3333 38.244 15.3333 38.0312C15.3333 37.8185 15.4178 37.6145 15.5682 37.4641C15.7187 37.3137 15.9227 37.2292 16.1354 37.2292H16.9375V16.375ZM20.1458 17.1771V25.1979C20.1458 25.4106 20.2303 25.6147 20.3807 25.7651C20.5312 25.9155 20.7352 26 20.9479 26H28.9687C29.1815 26 29.3855 25.9155 29.5359 25.7651C29.6863 25.6147 29.7708 25.4106 29.7708 25.1979V17.1771C29.7708 16.9644 29.6863 16.7603 29.5359 16.6099C29.3855 16.4595 29.1815 16.375 28.9687 16.375H20.9479C20.7352 16.375 20.5312 16.4595 20.3807 16.6099C20.2303 16.7603 20.1458 16.9644 20.1458 17.1771ZM24.3664 33.1546H21.9746V31.7221H24.2252V30.912H21.9746V29.5404H24.3648V28.6741H20.9238V34.0208H24.3664V33.1546ZM26.4775 34.0208H27.7512L29.5254 28.6741H28.3495L27.1624 32.869H27.1127L25.9144 28.6741H24.6888L26.4775 34.0208Z" fill="white"/>
<defs>
<linearGradient id="paint0_linear_2784_12037" x1="52" y1="61.0025" x2="-11.2154" y2="45.3786" gradientUnits="userSpaceOnUse">
<stop stop-color="#F5484A"/>
<stop offset="1" stop-color="#FF7475"/>
</linearGradient>
</defs>
</svg>
