<svg width="160" height="161" viewBox="0 0 160 161" fill="none" xmlns="http://www.w3.org/2000/svg">
<path fill-rule="evenodd" clip-rule="evenodd" d="M79.0755 11.1667C95.8036 11.1667 111.849 17.8125 123.677 29.6408C135.505 41.4692 142.151 57.5141 142.151 74.2423C142.151 95.7873 130.405 113.419 118.028 126.069C111.842 132.321 105.096 137.987 97.8705 143.001L94.8858 145.033L93.4849 145.965L90.8418 147.649L88.4885 149.084L85.5729 150.782C83.5923 151.907 81.3529 152.5 79.0755 152.5C76.7982 152.5 74.5588 151.907 72.5782 150.782L69.6625 149.084L66.0188 146.841L64.673 145.965L61.7988 144.053C57.596 141.207 53.5486 138.146 49.6736 134.878C46.3611 132.09 43.1729 129.15 40.1226 126.069C27.7456 113.406 16 95.7873 16 74.2423C16 57.5141 22.6457 41.4692 34.4741 29.6408C46.3025 17.8125 62.3474 11.1667 79.0755 11.1667ZM52.4721 84.3562C50.6506 84.3562 49.6772 82.2109 50.8766 80.8402L84.2273 42.7259C85.7038 41.0385 88.4473 42.4991 87.8717 44.6661L81.2546 69.5797C80.8972 70.9251 81.9115 72.2439 83.3035 72.2439H103.698C105.52 72.2439 106.493 74.3897 105.293 75.7604L71.9291 113.871C70.452 115.558 67.7085 114.096 68.2854 111.929L74.9155 87.0215C75.2737 85.6759 74.2594 84.3562 72.8669 84.3562H52.4721Z" fill="url(#paint0_linear_2135_24419)"/>
<defs>
<linearGradient id="paint0_linear_2135_24419" x1="142.151" y1="152.5" x2="-10.3618" y2="113.031" gradientUnits="userSpaceOnUse">
<stop stop-color="#01B763"/>
<stop offset="1" stop-color="#34E895"/>
</linearGradient>
</defs>
</svg>
