<svg width="18" height="18" viewBox="0 0 18 18" fill="none" xmlns="http://www.w3.org/2000/svg">
<path fill-rule="evenodd" clip-rule="evenodd" d="M1.5 0C1.10218 0 0.720644 0.158035 0.43934 0.43934C0.158035 0.720644 0 1.10218 0 1.5V16.5C0 16.8978 0.158035 17.2794 0.43934 17.5607C0.720644 17.842 1.10218 18 1.5 18H16.5C16.8978 18 17.2794 17.842 17.5607 17.5607C17.842 17.2794 18 16.8978 18 16.5V1.5C18 1.10218 17.842 0.720644 17.5607 0.43934C17.2794 0.158035 16.8978 0 16.5 0H1.5ZM8.5 2.5V4H7V5H8.5V6.5H9.5V5H11V4H9.5V2.5H8.5ZM2.02 7.6375C1.98788 7.51145 2.00615 7.37784 2.07093 7.26504C2.13571 7.15224 2.2419 7.06913 2.36696 7.03334C2.49202 6.99756 2.6261 7.01191 2.74075 7.07337C2.85539 7.13483 2.94157 7.23854 2.981 7.3625L3.581 9.4615H7.5V10.4615H6.846V11.3075H7.1155C7.23088 11.3074 7.34272 11.3473 7.43207 11.4203C7.52141 11.4933 7.58277 11.595 7.60572 11.708C7.62868 11.8211 7.61182 11.9386 7.55802 12.0407C7.50421 12.1427 7.41676 12.2231 7.3105 12.268L7.976 14.348C7.9918 14.3971 7.99989 14.4484 8 14.5H10C10 14.45 10.0075 14.3985 10.0235 14.3475L10.689 12.268C10.583 12.2228 10.4959 12.1425 10.4423 12.0405C10.3887 11.9385 10.372 11.8211 10.395 11.7082C10.418 11.5953 10.4793 11.4938 10.5685 11.4209C10.6577 11.348 10.7693 11.3081 10.8845 11.308H11.154V10.4615H10.5V9.4615H14.42L15.019 7.3625C15.0371 7.29933 15.0674 7.24034 15.1082 7.1889C15.1491 7.13745 15.1997 7.09455 15.2571 7.06265C15.3145 7.03076 15.3777 7.01048 15.443 7.00299C15.5082 6.9955 15.5743 7.00094 15.6375 7.019C15.7007 7.03706 15.7597 7.06738 15.8111 7.10823C15.8626 7.14909 15.9054 7.19968 15.9373 7.25711C15.9692 7.31454 15.9895 7.3777 15.997 7.44296C16.0045 7.50823 15.9991 7.57433 15.981 7.6375L15.0135 11.023L15.658 14.4065C15.6638 14.4373 15.6666 14.4686 15.6665 14.5H16.5C16.6326 14.5 16.7598 14.5527 16.8536 14.6464C16.9473 14.7402 17 14.8674 17 15C17 15.1326 16.9473 15.2598 16.8536 15.3536C16.7598 15.4473 16.6326 15.5 16.5 15.5H1.5C1.36739 15.5 1.24021 15.4473 1.14645 15.3536C1.05268 15.2598 1 15.1326 1 15C1 14.8674 1.05268 14.7402 1.14645 14.6464C1.24021 14.5527 1.36739 14.5 1.5 14.5H2.333C2.333 14.469 2.336 14.438 2.342 14.4065L2.987 11.023L2.0195 7.6375H2.02ZM14.05 11.3075H12.1545V10.4615H14.1345L14.0195 10.8625C13.9982 10.9377 13.9947 11.0168 14.0095 11.0935L14.05 11.3075ZM14.2765 12.5H11.665L11.025 14.5H14.6575L14.2765 12.5ZM5.8465 11.3075V10.4615H3.8665L3.9805 10.8625C4.002 10.9376 4.0056 11.0167 3.991 11.0935L3.9505 11.3075H5.846H5.8465ZM3.342 14.5L3.723 12.5H6.3345L6.9745 14.5H3.342Z" fill="#01B763"/>
</svg>
