<svg width="21" height="22" viewBox="0 0 21 22" fill="none" xmlns="http://www.w3.org/2000/svg">
<path d="M1.0607 0L0 1.0607L1.86854 4.29206L3.0803 4.11433L10.4769 11.5117L9.84597 12.1176C9.52283 12.4408 9.52283 12.9303 9.84597 13.2534L10.174 13.5822C10.4971 13.9054 10.9915 13.9054 11.2338 13.5822L12.1936 14.5411C12.1128 15.0258 12.1936 15.6018 12.5975 16.0058L16.9647 20.3479C17.8533 21.2365 19.3074 21.2365 20.196 20.3479C21.2462 19.3785 21.2365 17.9292 20.3479 17.0406L16.0058 12.6726C15.6018 12.2687 15.0258 12.1071 14.5411 12.2687L13.4804 11.3098C13.7228 10.9866 13.7228 10.4922 13.4804 10.2491L13.1775 9.94695C13.1041 9.87037 13.0159 9.80943 12.9183 9.7678C12.8207 9.72617 12.7157 9.70471 12.6096 9.70471C12.5035 9.70471 12.3985 9.72617 12.3009 9.7678C12.2033 9.80943 12.1151 9.87037 12.0417 9.94695L11.5117 10.4769L4.11514 3.0803L4.29125 1.86854L1.0607 0ZM16.8136 0.0250431C15.2197 -0.107443 13.1064 0.949213 12.1176 1.86773C10.901 3.08434 11.0997 4.67498 12.0667 6.21068L10.3509 7.92734L11.5626 9.29017C12.2089 8.72468 13.1622 8.72468 13.8084 9.29017L14.1372 9.61816L14.2132 9.69409L14.92 8.98723C16.3806 9.84597 17.901 9.96957 19.0602 8.81032C20.1912 7.76012 21.4175 5.17018 20.852 3.63529L18.5803 5.98287C18.2572 6.30601 17.7677 6.30601 17.4445 5.98287L15.0961 3.63529C15.0195 3.56185 14.9586 3.47368 14.917 3.37608C14.8753 3.27848 14.8539 3.17348 14.8539 3.06737C14.8539 2.96127 14.8753 2.85626 14.917 2.75866C14.9586 2.66107 15.0195 2.5729 15.0961 2.49946L17.4453 0.151874C17.2434 0.0807841 17.0414 0.0444313 16.8136 0.0250431ZM7.92734 10.098L4.99811 13.0264C4.68334 12.9565 4.36164 12.9226 4.03921 12.9255C1.77725 12.9255 0 14.7027 0 16.9647C0 19.2266 1.77725 21.0039 4.03921 21.0039C6.30116 21.0039 8.07841 19.2266 8.07841 16.9647C8.07841 16.5502 8.01298 16.152 7.90149 15.7779L9.61816 14.0613L9.36611 13.7333C8.71984 13.087 8.72468 12.1079 9.29017 11.4608L7.92734 10.098ZM14.1881 13.7842C14.2891 13.7842 14.3844 13.8036 14.4652 13.8852L19.2371 18.6563C19.3987 18.8179 19.3987 19.0747 19.2371 19.2363C19.0756 19.3979 18.817 19.3979 18.6555 19.2363L13.8852 14.4652C13.7236 14.3036 13.7236 14.0467 13.8852 13.8852C13.966 13.8044 14.0871 13.7842 14.1881 13.7842ZM4.595 14.8683L6.13475 16.4089L5.57895 18.5036L3.48422 19.0594L1.94367 17.5188L2.49946 15.4241L4.595 14.8683Z" fill="#01B763"/>
</svg>
