<svg width="17" height="16" viewBox="0 0 17 16" fill="none" xmlns="http://www.w3.org/2000/svg">
<path d="M1.83443 6.35855C1.81909 6.63255 1.97243 6.88788 2.22176 7.00255L7.22443 9.29722L9.51909 14.2992C9.62843 14.5365 9.86576 14.6879 10.1251 14.6879L10.1631 14.6865C10.2969 14.6791 10.4253 14.6314 10.5316 14.5498C10.638 14.4682 10.7172 14.3565 10.7591 14.2292L14.4891 2.87455C14.5671 2.63588 14.5044 2.37255 14.3271 2.19455C14.1498 2.01655 13.8871 1.95588 13.6471 2.03255L2.29176 5.76322C2.16441 5.8048 2.05261 5.8839 1.971 5.99013C1.88939 6.09637 1.84178 6.22479 1.83443 6.35855Z" fill="white"/>
</svg>
