<svg width="24" height="24" viewBox="0 0 24 24" fill="none" xmlns="http://www.w3.org/2000/svg">
<path fill-rule="evenodd" clip-rule="evenodd" d="M16.9229 10.1998C16.5089 10.1998 16.1729 9.86377 16.1729 9.44977V7.30277C16.1729 5.20677 14.4679 3.50177 12.3719 3.50177H12.3559C11.3429 3.50177 10.3939 3.89177 9.67688 4.60277C8.95488 5.31677 8.55588 6.26977 8.55188 7.28577V9.44977C8.55188 9.86377 8.21588 10.1998 7.80188 10.1998C7.38788 10.1998 7.05188 9.86377 7.05188 9.44977V7.30277C7.05788 5.86277 7.61488 4.53377 8.61988 3.53777C9.62588 2.54077 10.9539 1.96377 12.3749 2.00177C15.2949 2.00177 17.6729 4.37977 17.6729 7.30277V9.44977C17.6729 9.86377 17.3369 10.1998 16.9229 10.1998Z" fill="#212121"/>
<path fill-rule="evenodd" clip-rule="evenodd" d="M8.542 10.1289C6.864 10.1289 5.5 11.4929 5.5 13.1709V17.4599C5.5 19.1379 6.864 20.5019 8.542 20.5019H16.183C17.86 20.5019 19.225 19.1379 19.225 17.4599V13.1709C19.225 11.4929 17.86 10.1289 16.183 10.1289H8.542ZM16.183 22.0019H8.542C6.037 22.0019 4 19.9649 4 17.4599V13.1709C4 10.6659 6.037 8.62891 8.542 8.62891H16.183C18.688 8.62891 20.725 10.6659 20.725 13.1709V17.4599C20.725 19.9649 18.688 22.0019 16.183 22.0019Z" fill="#212121"/>
<path fill-rule="evenodd" clip-rule="evenodd" d="M12.3623 17.1761C11.9483 17.1761 11.6123 16.8401 11.6123 16.4261V14.2051C11.6123 13.7911 11.9483 13.4551 12.3623 13.4551C12.7763 13.4551 13.1123 13.7911 13.1123 14.2051V16.4261C13.1123 16.8401 12.7763 17.1761 12.3623 17.1761Z" fill="#212121"/>
</svg>
