<svg width="24" height="24" viewBox="0 0 24 24" fill="none" xmlns="http://www.w3.org/2000/svg">
<path fill-rule="evenodd" clip-rule="evenodd" d="M11.8889 12.619H11.9209C14.8489 12.619 17.2299 10.238 17.2299 7.31C17.2299 4.382 14.8489 2 11.9209 2C8.99189 2 6.60989 4.382 6.60989 7.307C6.59989 10.227 8.9669 12.61 11.8889 12.619ZM8.03789 7.31C8.03789 5.169 9.77989 3.428 11.9209 3.428C14.0609 3.428 15.8019 5.169 15.8019 7.31C15.8019 9.45 14.0609 11.192 11.9209 11.192H11.8919C9.75989 11.184 8.03089 9.444 8.03789 7.31Z" fill="#212121"/>
<path fill-rule="evenodd" clip-rule="evenodd" d="M3.99988 18.1733C3.99988 21.8703 9.96188 21.8703 11.9209 21.8703C15.3199 21.8703 19.8399 21.4893 19.8399 18.1933C19.8399 14.4963 13.8799 14.4963 11.9209 14.4963C8.52088 14.4963 3.99988 14.8773 3.99988 18.1733ZM5.49988 18.1733C5.49988 16.7283 7.65988 15.9963 11.9209 15.9963C16.1809 15.9963 18.3399 16.7353 18.3399 18.1933C18.3399 19.6383 16.1809 20.3703 11.9209 20.3703C7.65988 20.3703 5.49988 19.6313 5.49988 18.1733Z" fill="#212121"/>
</svg>
