<svg width="22" height="23" viewBox="0 0 22 23" fill="none" xmlns="http://www.w3.org/2000/svg">
<path d="M5.9934 1.89489C5.9934 2.367 5.80586 2.81976 5.47203 3.15359C5.13821 3.48741 4.68544 3.67496 4.21334 3.67496C3.74124 3.67496 3.28847 3.48741 2.95464 3.15359C2.62082 2.81976 2.43328 2.367 2.43328 1.89489C2.43328 1.42279 2.62082 0.970026 2.95464 0.6362C3.28847 0.302374 3.74124 0.114832 4.21334 0.114832C4.68544 0.114832 5.13821 0.302374 5.47203 0.6362C5.80586 0.970026 5.9934 1.42279 5.9934 1.89489ZM8.41845 6.93351V6.03418C8.4185 5.80924 8.37422 5.58649 8.28816 5.37866C8.2021 5.17083 8.07594 4.982 7.91688 4.82294C7.75782 4.66388 7.56899 4.53772 7.36116 4.45166C7.15333 4.3656 6.93058 4.32133 6.70564 4.32137H1.71567C1.26141 4.32137 0.825746 4.50183 0.504532 4.82304C0.183318 5.14426 0.00286184 5.57992 0.00286184 6.03418V6.93351C0.00100757 6.95421 5.27178e-05 6.97498 0 6.99576V12.1739C0 12.3671 0.0767353 12.5523 0.213325 12.6889C0.349915 12.8255 0.53517 12.9022 0.728337 12.9022C0.921504 12.9022 1.10676 12.8255 1.24335 12.6889C1.37994 12.5523 1.45667 12.3671 1.45667 12.1739V7.07267H1.94498V12.9026H1.94855V21.1407C1.95343 21.3951 2.05789 21.6373 2.23946 21.8154C2.42104 21.9935 2.66525 22.0933 2.91961 22.0933C3.17397 22.0933 3.41818 21.9935 3.59975 21.8154C3.78133 21.6373 3.88578 21.3951 3.89067 21.1407V12.9026H4.53136V21.1407C4.53136 21.3982 4.63365 21.6452 4.81572 21.8273C4.9978 22.0093 5.24474 22.1116 5.50224 22.1116C5.75973 22.1116 6.00668 22.0093 6.18875 21.8273C6.37083 21.6452 6.47311 21.3982 6.47311 21.1407V12.9026H6.47598V7.07267H6.96428V12.1739C6.97021 12.3631 7.04954 12.5426 7.18549 12.6743C7.32143 12.8061 7.50331 12.8798 7.69261 12.8798C7.88192 12.8798 8.0638 12.8061 8.19974 12.6743C8.33569 12.5426 8.41502 12.3631 8.42095 12.1739V6.99576C8.42122 6.97498 8.42038 6.9542 8.41845 6.93351ZM16.9843 3.56012C17.3363 3.55998 17.6805 3.45545 17.9731 3.25973C18.2658 3.06402 18.4938 2.78592 18.6284 2.4606C18.763 2.13528 18.7981 1.77736 18.7293 1.43209C18.6605 1.08682 18.4908 0.769709 18.2418 0.520863C17.9927 0.272017 17.6755 0.10261 17.3301 0.0340648C16.9848 -0.0344805 16.6269 0.000914472 16.3017 0.135774C15.9765 0.270633 15.6986 0.4989 15.5031 0.791708C15.3076 1.08452 15.2034 1.42872 15.2035 1.78078C15.2036 2.01454 15.2497 2.24599 15.3393 2.46192C15.4288 2.67785 15.56 2.87403 15.7254 3.03926C15.8907 3.20449 16.087 3.33553 16.303 3.4249C16.519 3.51427 16.7505 3.56022 16.9843 3.56012ZM21.975 11.2349L20.3781 5.31157C20.3635 5.25863 20.3429 5.20751 20.3169 5.15917C20.2261 4.88123 20.0498 4.63907 19.8132 4.46728C19.5766 4.29549 19.2918 4.20286 18.9994 4.20261H14.9577C14.6526 4.20293 14.356 4.30387 14.114 4.4898C13.872 4.67573 13.6981 4.93628 13.6191 5.23108C13.6084 5.25719 13.5994 5.28438 13.5916 5.31228L12.0229 11.2349C11.9982 11.3272 11.9918 11.4235 12.0043 11.5183C12.0168 11.6131 12.0478 11.7046 12.0956 11.7874C12.1434 11.8702 12.2071 11.9428 12.2829 12.001C12.3588 12.0592 12.4453 12.1019 12.5377 12.1267C12.6301 12.1514 12.7264 12.1578 12.8212 12.1453C12.916 12.1328 13.0074 12.1018 13.0902 12.054C13.173 12.0062 13.2456 11.9425 13.3038 11.8667C13.3621 11.7908 13.4048 11.7043 13.4295 11.6119L14.6619 6.95927H15.1752L12.9391 15.377H15.0457V21.1887C15.0457 21.4033 15.131 21.6091 15.2827 21.7609C15.4345 21.9126 15.6403 21.9979 15.8549 21.9979C16.0695 21.9979 16.2754 21.9126 16.4271 21.7609C16.5789 21.6091 16.6641 21.4033 16.6641 21.1887V15.377H17.308V21.1887C17.3143 21.3991 17.4023 21.5988 17.5533 21.7455C17.7044 21.8921 17.9067 21.9742 18.1172 21.9742C18.3277 21.9742 18.53 21.8921 18.6811 21.7455C18.8321 21.5988 18.9201 21.3991 18.9264 21.1887V15.377H21.032L18.7876 6.95927H19.3142L20.5684 11.6119C20.6185 11.7983 20.7406 11.9573 20.9078 12.0538C21.075 12.1503 21.2737 12.1765 21.4602 12.1267C21.6467 12.0766 21.8057 11.9546 21.9023 11.7874C21.9989 11.6201 22.0248 11.4214 21.975 11.2349ZM9.84078 0.0375622H11.0964V21.9957H9.84078V0.0375622Z" fill="#01B763"/>
</svg>
