<svg width="28" height="28" viewBox="0 0 28 28" fill="none" xmlns="http://www.w3.org/2000/svg">
<path fill-rule="evenodd" clip-rule="evenodd" d="M26.5415 16.2808H2.0415C1.5585 16.2808 1.1665 15.8888 1.1665 15.4058C1.1665 14.9228 1.5585 14.5308 2.0415 14.5308H26.5415C27.0245 14.5308 27.4165 14.9228 27.4165 15.4058C27.4165 15.8888 27.0245 16.2808 26.5415 16.2808" fill="#212121"/>
<path fill-rule="evenodd" clip-rule="evenodd" d="M20.005 25.3875H18.5991C18.1161 25.3875 17.7241 24.9955 17.7241 24.5125C17.7241 24.0295 18.1161 23.6375 18.5991 23.6375H20.005C21.9241 23.6375 23.4851 22.0765 23.4851 20.1585V15.4043C23.4851 14.9213 23.8771 14.5293 24.3601 14.5293C24.8431 14.5293 25.2351 14.9213 25.2351 15.4043V20.1585C25.2351 23.0413 22.889 25.3875 20.005 25.3875" fill="#212121"/>
<path fill-rule="evenodd" clip-rule="evenodd" d="M10.0203 25.3875H8.57831C5.69431 25.3875 3.34814 23.0413 3.34814 20.1585V15.4043C3.34814 14.9213 3.74014 14.5293 4.22314 14.5293C4.70614 14.5293 5.09814 14.9213 5.09814 15.4043V20.1585C5.09814 22.0765 6.65914 23.6375 8.57831 23.6375H10.0203C10.5033 23.6375 10.8953 24.0295 10.8953 24.5125C10.8953 24.9955 10.5033 25.3875 10.0203 25.3875" fill="#212121"/>
<path fill-rule="evenodd" clip-rule="evenodd" d="M24.3601 11.3692C23.8771 11.3692 23.4851 10.9772 23.4851 10.4942V8.72783C23.4851 6.811 21.9241 5.25 20.005 5.25H18.5991C18.1161 5.25 17.7241 4.858 17.7241 4.375C17.7241 3.892 18.1161 3.5 18.5991 3.5H20.005C22.889 3.5 25.2351 5.84617 25.2351 8.72783V10.4942C25.2351 10.9772 24.8431 11.3692 24.3601 11.3692" fill="#212121"/>
<path fill-rule="evenodd" clip-rule="evenodd" d="M4.22363 11.3692C3.74063 11.3692 3.34863 10.9772 3.34863 10.4942V8.72783C3.34863 5.84617 5.6948 3.5 8.5788 3.5H10.0208C10.5038 3.5 10.8958 3.892 10.8958 4.375C10.8958 4.858 10.5038 5.25 10.0208 5.25H8.5788C6.65963 5.25 5.09863 6.811 5.09863 8.72783V10.4942C5.09863 10.9772 4.70663 11.3692 4.22363 11.3692" fill="#212121"/>
</svg>
