<svg width="28" height="28" viewBox="0 0 28 28" fill="none" xmlns="http://www.w3.org/2000/svg">
<path d="M25.9455 14.0481H2.05563C1.56563 14.0481 1.16663 14.4382 1.16663 14.9198C1.16663 15.4003 1.56563 15.7893 2.05563 15.7893H3.29346V19.9467C3.29346 22.4545 5.37479 24.4966 7.93096 24.4988L9.83146 24.5C10.3226 24.5 10.7193 24.1099 10.7205 23.6282C10.7205 23.1477 10.3226 22.7576 9.83263 22.7576L7.93329 22.7565C6.35479 22.7542 5.07029 21.4946 5.07029 19.9467V15.7893H8.13046V16.9459C8.11879 18.3931 9.30296 19.5761 10.7776 19.5898H17.2223C18.6981 19.5761 19.8823 18.3931 19.8706 16.9459V15.7893H22.9308V19.9422C22.9308 21.4958 21.6428 22.7576 20.0596 22.7576H18.2011C17.71 22.7576 17.3121 23.1477 17.3121 23.6282C17.3121 24.1099 17.71 24.5 18.2011 24.5H20.0596C22.6216 24.5 24.7065 22.4567 24.7065 19.9422V15.7893H25.9455C26.4355 15.7893 26.8333 15.4003 26.8333 14.9198C26.8333 14.4382 26.4355 14.0481 25.9455 14.0481Z" fill="#01B763"/>
<path opacity="0.4" fill-rule="evenodd" clip-rule="evenodd" d="M10.7201 4.37175C10.7201 3.89012 10.3223 3.5 9.83231 3.5H9.83115L7.93064 3.50114C5.37448 3.50343 3.29431 5.54553 3.29431 8.05326V10.2223C3.29431 10.7028 3.69214 11.0941 4.18214 11.0941C4.67214 11.0941 5.07114 10.7028 5.07114 10.2223V8.05326C5.07114 6.50538 6.35448 5.2458 7.93181 5.24351L9.83231 5.24236C10.3235 5.24236 10.7201 4.85225 10.7201 4.37175ZM20.0592 3.50034H18.2007C17.7107 3.50034 17.3129 3.89046 17.3129 4.3721C17.3129 4.85259 17.7107 5.24156 18.2007 5.24156H20.0592C21.6424 5.24156 22.9304 6.50458 22.9304 8.05703V10.2227C22.9304 10.7032 23.3282 11.0944 23.8182 11.0944C24.3094 11.0944 24.706 10.7032 24.706 10.2227V8.05703C24.706 5.54359 22.6224 3.50034 20.0592 3.50034ZM10.7782 7.86643H17.2229C17.9287 7.86643 18.6066 8.14443 19.1001 8.6398C19.5971 9.13974 19.8724 9.81129 19.8712 10.5103V11.9632C19.8654 12.1337 19.7266 12.2721 19.5527 12.2767H8.44608C8.27341 12.271 8.13458 12.1325 8.13108 11.9632V10.5103C8.11824 9.06309 9.30358 7.88131 10.7782 7.86643Z" fill="#01B763"/>
</svg>
