<svg width="28" height="28" viewBox="0 0 28 28" fill="none" xmlns="http://www.w3.org/2000/svg">
<path fill-rule="evenodd" clip-rule="evenodd" d="M10.3573 7.44165C10.3573 9.61943 8.56198 11.3846 6.34533 11.3846C4.12997 11.3846 2.33331 9.61943 2.33331 7.44165C2.33331 5.26515 4.12997 3.5 6.34533 3.5C8.56198 3.5 10.3573 5.26515 10.3573 7.44165ZM23.9089 5.71471C24.8785 5.71471 25.6666 6.48903 25.6666 7.44165C25.6666 8.39555 24.8785 9.16987 23.9089 9.16987H16.2374C15.2665 9.16987 14.4784 8.39555 14.4784 7.44165C14.4784 6.48903 15.2665 5.71471 16.2374 5.71471H23.9089ZM4.09238 18.6176H11.7638C12.7347 18.6176 13.5229 19.3919 13.5229 20.3458C13.5229 21.2984 12.7347 22.074 11.7638 22.074H4.09238C3.12146 22.074 2.33331 21.2984 2.33331 20.3458C2.33331 19.3919 3.12146 18.6176 4.09238 18.6176ZM21.6546 24.2407C23.8713 24.2407 25.6666 22.4756 25.6666 20.2991C25.6666 18.1213 23.8713 16.3562 21.6546 16.3562C19.4393 16.3562 17.6426 18.1213 17.6426 20.2991C17.6426 22.4756 19.4393 24.2407 21.6546 24.2407Z" fill="#01B763"/>
</svg>
