<svg width="20" height="20" viewBox="0 0 20 20" fill="none" xmlns="http://www.w3.org/2000/svg">
<path d="M12 12H14.4V14.4H12V12ZM3.6 0H15.6C15.6879 3.29761e-05 15.7748 0.0193982 15.8544 0.0567246C15.9341 0.0940511 16.0045 0.148426 16.0608 0.216L19.0608 3.816C19.2012 3.984 19.2 4.0692 19.2 4.1784V6C19.2 7.0656 18.7368 8.0244 18 8.6832V18.6C18 18.7591 17.9368 18.9117 17.8243 19.0243C17.7117 19.1368 17.5591 19.2 17.4 19.2H9.6V11.4C9.6 11.2409 9.53679 11.0883 9.42426 10.9757C9.31174 10.8632 9.15913 10.8 9 10.8H4.2C4.04087 10.8 3.88826 10.8632 3.77574 10.9757C3.66321 11.0883 3.6 11.2409 3.6 11.4V19.2H1.8C1.64087 19.2 1.48826 19.1368 1.37574 19.0243C1.26321 18.9117 1.2 18.7591 1.2 18.6V8.6832C0.4632 8.0232 0 7.0656 0 6V4.2C6.3148e-05 4.05966 0.0493189 3.92378 0.1392 3.816L3.1392 0.216C3.19548 0.148426 3.26594 0.0940511 3.34556 0.0567246C3.42519 0.0193982 3.51206 3.29761e-05 3.6 0ZM1.2 4.8V6C1.2 6.63652 1.45286 7.24697 1.90294 7.69706C2.35303 8.14714 2.96348 8.4 3.6 8.4C4.23652 8.4 4.84697 8.14714 5.29706 7.69706C5.74714 7.24697 6 6.63652 6 6V4.8H1.2ZM7.2 4.8V6C7.2 6.63652 7.45286 7.24697 7.90294 7.69706C8.35303 8.14714 8.96348 8.4 9.6 8.4C10.2365 8.4 10.847 8.14714 11.2971 7.69706C11.7471 7.24697 12 6.63652 12 6V4.8H7.2ZM13.2 4.8V6C13.2 6.63652 13.4529 7.24697 13.9029 7.69706C14.353 8.14714 14.9635 8.4 15.6 8.4C16.2365 8.4 16.847 8.14714 17.2971 7.69706C17.7471 7.24697 18 6.63652 18 6V4.8H13.2ZM3.8808 1.2L1.8816 3.6H6.168L6.9672 1.2H3.8808ZM11.7672 3.6L10.968 1.2H8.232L7.4328 3.6H11.7672ZM13.032 3.6H17.3196L15.3192 1.2H12.2328L13.032 3.6ZM10.8 11.4V15C10.8 15.1591 10.8632 15.3117 10.9757 15.4243C11.0883 15.5368 11.2409 15.6 11.4 15.6H15C15.1591 15.6 15.3117 15.5368 15.4243 15.4243C15.5368 15.3117 15.6 15.1591 15.6 15V11.4C15.6 11.2409 15.5368 11.0883 15.4243 10.9757C15.3117 10.8632 15.1591 10.8 15 10.8H11.4C11.2409 10.8 11.0883 10.8632 10.9757 10.9757C10.8632 11.0883 10.8 11.2409 10.8 11.4ZM8.4 19.2V12H4.8V19.2H8.4Z" fill="#01B763"/>
</svg>
