<svg width="24" height="24" viewBox="0 0 24 24" fill="none" xmlns="http://www.w3.org/2000/svg">
<path fill-rule="evenodd" clip-rule="evenodd" d="M21.8887 15.8957H17.8407C15.9437 15.8957 14.3997 14.3527 14.3987 12.4567C14.3987 10.5587 15.9427 9.01467 17.8407 9.01367H21.8887C22.3027 9.01367 22.6387 9.34967 22.6387 9.76367C22.6387 10.1777 22.3027 10.5137 21.8887 10.5137H17.8407C16.7697 10.5147 15.8987 11.3857 15.8987 12.4557C15.8987 13.5247 16.7707 14.3957 17.8407 14.3957H21.8887C22.3027 14.3957 22.6387 14.7317 22.6387 15.1457C22.6387 15.5597 22.3027 15.8957 21.8887 15.8957Z" fill="#9E9E9E"/>
<path fill-rule="evenodd" clip-rule="evenodd" d="M18.2983 13.1445H17.9863C17.5723 13.1445 17.2363 12.8085 17.2363 12.3945C17.2363 11.9805 17.5723 11.6445 17.9863 11.6445H18.2983C18.7123 11.6445 19.0483 11.9805 19.0483 12.3945C19.0483 12.8085 18.7123 13.1445 18.2983 13.1445Z" fill="#9E9E9E"/>
<mask id="mask0_2771_4139" style="mask-type:luminance" maskUnits="userSpaceOnUse" x="2" y="3" width="21" height="20">
<path fill-rule="evenodd" clip-rule="evenodd" d="M2 3H22.6386V22.1729H2V3Z" fill="white"/>
</mask>
<g mask="url(#mask0_2771_4139)">
<path fill-rule="evenodd" clip-rule="evenodd" d="M7.99763 4.5C5.51763 4.5 3.49963 6.518 3.49963 8.998V16.175C3.49963 18.655 5.51763 20.673 7.99763 20.673H16.6416C19.1216 20.673 21.1386 18.655 21.1386 16.175V8.998C21.1386 6.518 19.1216 4.5 16.6416 4.5H7.99763ZM16.6416 22.173H7.99763C4.69063 22.173 1.99963 19.482 1.99963 16.175V8.998C1.99963 5.69 4.69063 3 7.99763 3H16.6416C19.9486 3 22.6386 5.69 22.6386 8.998V16.175C22.6386 19.482 19.9486 22.173 16.6416 22.173Z" fill="#9E9E9E"/>
</g>
<path fill-rule="evenodd" clip-rule="evenodd" d="M12.6846 9.03906H7.28564C6.87164 9.03906 6.53564 8.70306 6.53564 8.28906C6.53564 7.87506 6.87164 7.53906 7.28564 7.53906H12.6846C13.0986 7.53906 13.4346 7.87506 13.4346 8.28906C13.4346 8.70306 13.0986 9.03906 12.6846 9.03906Z" fill="#9E9E9E"/>
</svg>
