<svg width="24" height="24" viewBox="0 0 24 24" fill="none" xmlns="http://www.w3.org/2000/svg">
<path fill-rule="evenodd" clip-rule="evenodd" d="M18.1605 11.8C18.1605 12.214 17.8245 12.55 17.4105 12.55C16.9965 12.55 16.6605 12.214 16.6605 11.8C16.6605 11.386 16.9965 11.05 17.4105 11.05C17.8245 11.05 18.1605 11.386 18.1605 11.8ZM15.4575 11.86C15.4575 12.859 16.2715 13.672 17.2705 13.672H21.7305C21.7725 13.144 21.8005 12.595 21.8005 12C21.8005 11.298 21.7655 10.655 21.7065 10.046H17.2705C16.2715 10.046 15.4575 10.86 15.4575 11.86Z" fill="#01B763"/>
<path fill-rule="evenodd" clip-rule="evenodd" d="M11.6517 8.64094H7.59171C7.17771 8.64094 6.84171 8.30494 6.84171 7.89094C6.84171 7.47694 7.17771 7.14094 7.59171 7.14094H11.6517C12.0657 7.14094 12.4017 7.47694 12.4017 7.89094C12.4017 8.30494 12.0657 8.64094 11.6517 8.64094ZM17.2707 15.1719C15.4437 15.1719 13.9577 13.6859 13.9577 11.8599C13.9577 10.0329 15.4437 8.54594 17.2707 8.54594H21.4807C20.6027 4.49194 17.8097 2.96094 12.0007 2.96094C4.76471 2.96094 2.19971 5.32694 2.19971 11.9999C2.19971 18.6739 4.76471 21.0389 12.0007 21.0389C17.9427 21.0389 20.7307 19.4389 21.5387 15.1719H17.2707Z" fill="#01B763"/>
</svg>
